<mxfile host="app.diagrams.net" agent="Mozilla/5.0 (Windows NT 10.0; Win64; x64) AppleWebKit/537.36 (KHTML, like Gecko) Chrome/132.0.0.0 Safari/537.36" version="25.0.3">
  <diagram name="Página-1" id="oXNoQNpikHi4yJ0ThC7W">
    <mxGraphModel dx="1588" dy="1446" grid="0" gridSize="10" guides="1" tooltips="1" connect="1" arrows="1" fold="1" page="0" pageScale="1" pageWidth="827" pageHeight="1169" math="0" shadow="0">
      <root>
        <mxCell id="0" />
        <mxCell id="1" parent="0" />
        <mxCell id="Q8CfhYJSHqm0Wh069_s3-3" value="INICIO" style="strokeWidth=2;html=1;shape=mxgraph.flowchart.start_1;whiteSpace=wrap;fillColor=#dae8fc;strokeColor=#6c8ebf;" vertex="1" parent="1">
          <mxGeometry x="204" y="-25" width="100" height="60" as="geometry" />
        </mxCell>
        <mxCell id="Q8CfhYJSHqm0Wh069_s3-4" value="peso" style="html=1;strokeWidth=2;shape=manualInput;whiteSpace=wrap;rounded=1;size=26;arcSize=11;fillColor=#d5e8d4;strokeColor=#82b366;" vertex="1" parent="1">
          <mxGeometry x="204" y="59" width="100" height="60" as="geometry" />
        </mxCell>
        <mxCell id="Q8CfhYJSHqm0Wh069_s3-12" value="" style="edgeStyle=none;curved=1;rounded=0;orthogonalLoop=1;jettySize=auto;html=1;fontSize=12;startSize=8;endSize=8;" edge="1" parent="1" source="Q8CfhYJSHqm0Wh069_s3-5" target="Q8CfhYJSHqm0Wh069_s3-6">
          <mxGeometry relative="1" as="geometry" />
        </mxCell>
        <mxCell id="Q8CfhYJSHqm0Wh069_s3-5" value="&lt;div&gt;altura&lt;/div&gt;" style="html=1;strokeWidth=2;shape=manualInput;whiteSpace=wrap;rounded=1;size=26;arcSize=11;fillColor=#d5e8d4;strokeColor=#82b366;" vertex="1" parent="1">
          <mxGeometry x="204" y="152" width="100" height="60" as="geometry" />
        </mxCell>
        <mxCell id="Q8CfhYJSHqm0Wh069_s3-25" value="" style="edgeStyle=none;curved=1;rounded=0;orthogonalLoop=1;jettySize=auto;html=1;fontSize=12;startSize=8;endSize=8;" edge="1" parent="1" source="Q8CfhYJSHqm0Wh069_s3-6" target="Q8CfhYJSHqm0Wh069_s3-22">
          <mxGeometry relative="1" as="geometry" />
        </mxCell>
        <mxCell id="Q8CfhYJSHqm0Wh069_s3-6" value="IMC = peso / (altura*altura)&amp;nbsp;" style="rounded=1;whiteSpace=wrap;html=1;absoluteArcSize=1;arcSize=14;strokeWidth=2;fillColor=#fff2cc;strokeColor=#d6b656;" vertex="1" parent="1">
          <mxGeometry x="196" y="252" width="116" height="55" as="geometry" />
        </mxCell>
        <mxCell id="Q8CfhYJSHqm0Wh069_s3-8" style="edgeStyle=none;curved=1;rounded=0;orthogonalLoop=1;jettySize=auto;html=1;fontSize=12;startSize=8;endSize=8;entryX=0.49;entryY=0.217;entryDx=0;entryDy=0;entryPerimeter=0;" edge="1" parent="1" source="Q8CfhYJSHqm0Wh069_s3-3" target="Q8CfhYJSHqm0Wh069_s3-4">
          <mxGeometry relative="1" as="geometry">
            <mxPoint x="253" y="78" as="targetPoint" />
          </mxGeometry>
        </mxCell>
        <mxCell id="Q8CfhYJSHqm0Wh069_s3-11" style="edgeStyle=none;curved=1;rounded=0;orthogonalLoop=1;jettySize=auto;html=1;entryX=0.49;entryY=0.208;entryDx=0;entryDy=0;entryPerimeter=0;fontSize=12;startSize=8;endSize=8;" edge="1" parent="1" source="Q8CfhYJSHqm0Wh069_s3-4" target="Q8CfhYJSHqm0Wh069_s3-5">
          <mxGeometry relative="1" as="geometry" />
        </mxCell>
        <mxCell id="Q8CfhYJSHqm0Wh069_s3-26" value="" style="edgeStyle=none;curved=1;rounded=0;orthogonalLoop=1;jettySize=auto;html=1;fontSize=12;startSize=8;endSize=8;" edge="1" parent="1" source="Q8CfhYJSHqm0Wh069_s3-22" target="Q8CfhYJSHqm0Wh069_s3-24">
          <mxGeometry relative="1" as="geometry" />
        </mxCell>
        <mxCell id="Q8CfhYJSHqm0Wh069_s3-35" value="Sim" style="edgeLabel;html=1;align=center;verticalAlign=middle;resizable=0;points=[];fontSize=12;" vertex="1" connectable="0" parent="Q8CfhYJSHqm0Wh069_s3-26">
          <mxGeometry x="-0.3559" y="1" relative="1" as="geometry">
            <mxPoint as="offset" />
          </mxGeometry>
        </mxCell>
        <mxCell id="Q8CfhYJSHqm0Wh069_s3-30" style="edgeStyle=none;curved=0;rounded=0;orthogonalLoop=1;jettySize=auto;html=1;exitX=0.5;exitY=1;exitDx=0;exitDy=0;entryX=0;entryY=0.5;entryDx=0;entryDy=0;fontSize=12;startSize=8;endSize=8;" edge="1" parent="1" source="Q8CfhYJSHqm0Wh069_s3-22" target="Q8CfhYJSHqm0Wh069_s3-27">
          <mxGeometry relative="1" as="geometry">
            <Array as="points">
              <mxPoint x="254" y="502" />
            </Array>
          </mxGeometry>
        </mxCell>
        <mxCell id="Q8CfhYJSHqm0Wh069_s3-34" value="Não" style="edgeLabel;html=1;align=center;verticalAlign=middle;resizable=0;points=[];fontSize=12;" vertex="1" connectable="0" parent="Q8CfhYJSHqm0Wh069_s3-30">
          <mxGeometry x="-0.7198" y="-1" relative="1" as="geometry">
            <mxPoint y="-1" as="offset" />
          </mxGeometry>
        </mxCell>
        <mxCell id="Q8CfhYJSHqm0Wh069_s3-22" value="IMC &amp;gt;= 25" style="rhombus;whiteSpace=wrap;html=1;strokeWidth=2;fillColor=#f8cecc;strokeColor=#b85450;" vertex="1" parent="1">
          <mxGeometry x="214" y="344" width="80" height="80" as="geometry" />
        </mxCell>
        <mxCell id="Q8CfhYJSHqm0Wh069_s3-28" value="" style="edgeStyle=none;curved=1;rounded=0;orthogonalLoop=1;jettySize=auto;html=1;fontSize=12;startSize=8;endSize=8;" edge="1" parent="1" source="Q8CfhYJSHqm0Wh069_s3-24" target="Q8CfhYJSHqm0Wh069_s3-27">
          <mxGeometry relative="1" as="geometry" />
        </mxCell>
        <mxCell id="Q8CfhYJSHqm0Wh069_s3-24" value="Indice acima" style="strokeWidth=2;html=1;shape=mxgraph.flowchart.display;whiteSpace=wrap;fillColor=#e1d5e7;strokeColor=#9673a6;" vertex="1" parent="1">
          <mxGeometry x="341" y="357" width="100" height="57" as="geometry" />
        </mxCell>
        <mxCell id="Q8CfhYJSHqm0Wh069_s3-37" value="" style="edgeStyle=none;curved=1;rounded=0;orthogonalLoop=1;jettySize=auto;html=1;fontSize=12;startSize=8;endSize=8;" edge="1" parent="1" source="Q8CfhYJSHqm0Wh069_s3-27" target="Q8CfhYJSHqm0Wh069_s3-36">
          <mxGeometry relative="1" as="geometry" />
        </mxCell>
        <mxCell id="Q8CfhYJSHqm0Wh069_s3-27" value="" style="ellipse;whiteSpace=wrap;html=1;strokeWidth=2;" vertex="1" parent="1">
          <mxGeometry x="368" y="483" width="42" height="38.5" as="geometry" />
        </mxCell>
        <mxCell id="Q8CfhYJSHqm0Wh069_s3-41" value="" style="edgeStyle=none;curved=1;rounded=0;orthogonalLoop=1;jettySize=auto;html=1;fontSize=12;startSize=8;endSize=8;" edge="1" parent="1" source="Q8CfhYJSHqm0Wh069_s3-36" target="Q8CfhYJSHqm0Wh069_s3-40">
          <mxGeometry relative="1" as="geometry" />
        </mxCell>
        <mxCell id="Q8CfhYJSHqm0Wh069_s3-36" value="IMC" style="strokeWidth=2;html=1;shape=mxgraph.flowchart.display;whiteSpace=wrap;fillColor=#e1d5e7;strokeColor=#9673a6;" vertex="1" parent="1">
          <mxGeometry x="339" y="575" width="100" height="60" as="geometry" />
        </mxCell>
        <mxCell id="Q8CfhYJSHqm0Wh069_s3-40" value="FIM" style="strokeWidth=2;html=1;shape=mxgraph.flowchart.start_1;whiteSpace=wrap;fillColor=#dae8fc;strokeColor=#6c8ebf;" vertex="1" parent="1">
          <mxGeometry x="339" y="677" width="100" height="60" as="geometry" />
        </mxCell>
      </root>
    </mxGraphModel>
  </diagram>
</mxfile>
